# xmcd
#
# Track frame offsets: 
#        150
#        13460
#        22380
#        33300
#        43335
#        54960
#        63145
#        80527
#        91255
#        103355
#        117452
#        127830
#        141187
#        152845
#        165575
#        178927
#        190877
#        204455
#        219105
#        239817
#
# Disc length: 3348 seconds
#
# Revision: 10
# Processed by: cddbd v1.5.2PL0 Copyright (c) Steve Scherf et al.
# Submitted via: ExactAudioCopy v0.95b3
#
DISCID=240d1214
DTITLE=Various Artist - Top 100 Gold Vol. 3
DYEAR=1900
DGENRE=Oldies
TTITLE0=Flowerpot Men - Let's Go To San Francisco
TTITLE1=Everly Brothers - Wake Up Little Susie
TTITLE2=Cascades - Rhythm Of The Rain
TTITLE3=Lesley Gore - It's My Party
TTITLE4=Paul Anka - Put Your Head On My Shoulder
TTITLE5=Coasters - Yakety Yak
TTITLE6=Trini Lopez - This Land Is Your Land
TTITLE7=Mitch Miller and His Orchester - March Of The River Kwai
TTITLE8=Otis Redding - (Sittin' On) The Dock Of The Bay
TTITLE9=Petula Clark - Downtown
TTITLE10=Bobby Vee - Rubber Ball
TTITLE11=Dave Dee, Dozy, Beaky, Mick and Tich - Zabadak
TTITLE12=Middle Of The Road - Chirpy, Chirpy, Cheep, Cheep
TTITLE13=Tommy James and The Shondells - Mony Mony
TTITLE14=Daniel Boone - Beautiful Sunday
TTITLE15=Mamas and The Papas - California Dreamin'
TTITLE16=Sam Cooke - Wonderful World
TTITLE17=Osibisa - The Coffee Song
TTITLE18=Melanie - Ruby Tuesday
TTITLE19=Mac and Katie Kissoon - Love Will Keep Us Together
EXTD=ID3G:   0
EXTT0=The Flowerpot Men
EXTT1=Everly Brothers
EXTT2=The Cascades
EXTT3=Lesley Gore
EXTT4=Paul Anka
EXTT5=Coasters
EXTT6=Trini Lopez
EXTT7=Mitch Miller and His Orchestra
EXTT8=Otis Redding
EXTT9=Petula Clark
EXTT10=Bobby Vee
EXTT11=Dave Dee, Dozy, Beaky, Mick and Tich
EXTT12=Middle of the Road
EXTT13=Tommy James and The Shondells
EXTT14=Dani l Boone
EXTT15=Mama's and Papa's
EXTT16=Sam Cooke
EXTT17=Osibisa
EXTT18=Melanie
EXTT19=Mac and Katie Kissoon
PLAYORDER=
